<?xml version="1.0" encoding="UTF-8"?>
<svg xmlns="http://www.w3.org/2000/svg" width="816" height="816" viewBox="0 0 816 816">
  <defs>
    <filter id="glow" x="-20%" y="-20%" width="140%" height="140%">
      <feGaussianBlur stdDeviation="1.4" result="b"/>
      <feMerge><feMergeNode in="b"/><feMergeNode in="SourceGraphic"/></feMerge>
    </filter>
  </defs>

  <!-- 1. Background -->
  <rect width="816" height="816" fill="#060606"/>

  <!-- 2. Full square QR (keeps all finder/alignment patterns intact → scannable) -->
  <g fill="#e01818" filter="url(#glow)">
    <rect x="49.7" y="49.7" width="18.3" height="18.3" rx="6.1"/>
    <rect x="71.6" y="49.7" width="18.3" height="18.3" rx="6.1"/>
    <rect x="93.4" y="49.7" width="18.3" height="18.3" rx="6.1"/>
    <rect x="115.2" y="49.7" width="18.3" height="18.3" rx="6.1"/>
    <rect x="137.0" y="49.7" width="18.3" height="18.3" rx="6.1"/>
    <rect x="158.8" y="49.7" width="18.3" height="18.3" rx="6.1"/>
    <rect x="180.7" y="49.7" width="18.3" height="18.3" rx="6.1"/>
    <rect x="246.1" y="49.7" width="18.3" height="18.3" rx="6.1"/>
    <rect x="289.7" y="49.7" width="18.3" height="18.3" rx="6.1"/>
    <rect x="420.7" y="49.7" width="18.3" height="18.3" rx="6.1"/>
    <rect x="442.5" y="49.7" width="18.3" height="18.3" rx="6.1"/>
    <rect x="464.3" y="49.7" width="18.3" height="18.3" rx="6.1"/>
    <rect x="507.9" y="49.7" width="18.3" height="18.3" rx="6.1"/>
    <rect x="529.7" y="49.7" width="18.3" height="18.3" rx="6.1"/>
    <rect x="573.4" y="49.7" width="18.3" height="18.3" rx="6.1"/>
    <rect x="617.0" y="49.7" width="18.3" height="18.3" rx="6.1"/>
    <rect x="638.8" y="49.7" width="18.3" height="18.3" rx="6.1"/>
    <rect x="660.7" y="49.7" width="18.3" height="18.3" rx="6.1"/>
    <rect x="682.5" y="49.7" width="18.3" height="18.3" rx="6.1"/>
    <rect x="704.3" y="49.7" width="18.3" height="18.3" rx="6.1"/>
    <rect x="726.1" y="49.7" width="18.3" height="18.3" rx="6.1"/>
    <rect x="747.9" y="49.7" width="18.3" height="18.3" rx="6.1"/>
    <rect x="49.7" y="71.6" width="18.3" height="18.3" rx="6.1"/>
    <rect x="180.7" y="71.6" width="18.3" height="18.3" rx="6.1"/>
    <rect x="246.1" y="71.6" width="18.3" height="18.3" rx="6.1"/>
    <rect x="333.4" y="71.6" width="18.3" height="18.3" rx="6.1"/>
    <rect x="377.0" y="71.6" width="18.3" height="18.3" rx="6.1"/>
    <rect x="420.7" y="71.6" width="18.3" height="18.3" rx="6.1"/>
    <rect x="486.1" y="71.6" width="18.3" height="18.3" rx="6.1"/>
    <rect x="529.7" y="71.6" width="18.3" height="18.3" rx="6.1"/>
    <rect x="573.4" y="71.6" width="18.3" height="18.3" rx="6.1"/>
    <rect x="617.0" y="71.6" width="18.3" height="18.3" rx="6.1"/>
    <rect x="747.9" y="71.6" width="18.3" height="18.3" rx="6.1"/>
    <rect x="49.7" y="93.4" width="18.3" height="18.3" rx="6.1"/>
    <rect x="93.4" y="93.4" width="18.3" height="18.3" rx="6.1"/>
    <rect x="115.2" y="93.4" width="18.3" height="18.3" rx="6.1"/>
    <rect x="137.0" y="93.4" width="18.3" height="18.3" rx="6.1"/>
    <rect x="180.7" y="93.4" width="18.3" height="18.3" rx="6.1"/>
    <rect x="224.3" y="93.4" width="18.3" height="18.3" rx="6.1"/>
    <rect x="246.1" y="93.4" width="18.3" height="18.3" rx="6.1"/>
    <rect x="289.7" y="93.4" width="18.3" height="18.3" rx="6.1"/>
    <rect x="333.4" y="93.4" width="18.3" height="18.3" rx="6.1"/>
    <rect x="377.0" y="93.4" width="18.3" height="18.3" rx="6.1"/>
    <rect x="420.7" y="93.4" width="18.3" height="18.3" rx="6.1"/>
    <rect x="442.5" y="93.4" width="18.3" height="18.3" rx="6.1"/>
    <rect x="464.3" y="93.4" width="18.3" height="18.3" rx="6.1"/>
    <rect x="507.9" y="93.4" width="18.3" height="18.3" rx="6.1"/>
    <rect x="529.7" y="93.4" width="18.3" height="18.3" rx="6.1"/>
    <rect x="551.6" y="93.4" width="18.3" height="18.3" rx="6.1"/>
    <rect x="573.4" y="93.4" width="18.3" height="18.3" rx="6.1"/>
    <rect x="617.0" y="93.4" width="18.3" height="18.3" rx="6.1"/>
    <rect x="660.7" y="93.4" width="18.3" height="18.3" rx="6.1"/>
    <rect x="682.5" y="93.4" width="18.3" height="18.3" rx="6.1"/>
    <rect x="704.3" y="93.4" width="18.3" height="18.3" rx="6.1"/>
    <rect x="747.9" y="93.4" width="18.3" height="18.3" rx="6.1"/>
    <rect x="49.7" y="115.2" width="18.3" height="18.3" rx="6.1"/>
    <rect x="93.4" y="115.2" width="18.3" height="18.3" rx="6.1"/>
    <rect x="115.2" y="115.2" width="18.3" height="18.3" rx="6.1"/>
    <rect x="137.0" y="115.2" width="18.3" height="18.3" rx="6.1"/>
    <rect x="180.7" y="115.2" width="18.3" height="18.3" rx="6.1"/>
    <rect x="224.3" y="115.2" width="18.3" height="18.3" rx="6.1"/>
    <rect x="267.9" y="115.2" width="18.3" height="18.3" rx="6.1"/>
    <rect x="311.6" y="115.2" width="18.3" height="18.3" rx="6.1"/>
    <rect x="333.4" y="115.2" width="18.3" height="18.3" rx="6.1"/>
    <rect x="398.8" y="115.2" width="18.3" height="18.3" rx="6.1"/>
    <rect x="442.5" y="115.2" width="18.3" height="18.3" rx="6.1"/>
    <rect x="464.3" y="115.2" width="18.3" height="18.3" rx="6.1"/>
    <rect x="486.1" y="115.2" width="18.3" height="18.3" rx="6.1"/>
    <rect x="507.9" y="115.2" width="18.3" height="18.3" rx="6.1"/>
    <rect x="551.6" y="115.2" width="18.3" height="18.3" rx="6.1"/>
    <rect x="573.4" y="115.2" width="18.3" height="18.3" rx="6.1"/>
    <rect x="617.0" y="115.2" width="18.3" height="18.3" rx="6.1"/>
    <rect x="660.7" y="115.2" width="18.3" height="18.3" rx="6.1"/>
    <rect x="682.5" y="115.2" width="18.3" height="18.3" rx="6.1"/>
    <rect x="704.3" y="115.2" width="18.3" height="18.3" rx="6.1"/>
    <rect x="747.9" y="115.2" width="18.3" height="18.3" rx="6.1"/>
    <rect x="49.7" y="137.0" width="18.3" height="18.3" rx="6.1"/>
    <rect x="93.4" y="137.0" width="18.3" height="18.3" rx="6.1"/>
    <rect x="115.2" y="137.0" width="18.3" height="18.3" rx="6.1"/>
    <rect x="137.0" y="137.0" width="18.3" height="18.3" rx="6.1"/>
    <rect x="180.7" y="137.0" width="18.3" height="18.3" rx="6.1"/>
    <rect x="246.1" y="137.0" width="18.3" height="18.3" rx="6.1"/>
    <rect x="311.6" y="137.0" width="18.3" height="18.3" rx="6.1"/>
    <rect x="377.0" y="137.0" width="18.3" height="18.3" rx="6.1"/>
    <rect x="398.8" y="137.0" width="18.3" height="18.3" rx="6.1"/>
    <rect x="442.5" y="137.0" width="18.3" height="18.3" rx="6.1"/>
    <rect x="464.3" y="137.0" width="18.3" height="18.3" rx="6.1"/>
    <rect x="551.6" y="137.0" width="18.3" height="18.3" rx="6.1"/>
    <rect x="617.0" y="137.0" width="18.3" height="18.3" rx="6.1"/>
    <rect x="660.7" y="137.0" width="18.3" height="18.3" rx="6.1"/>
    <rect x="682.5" y="137.0" width="18.3" height="18.3" rx="6.1"/>
    <rect x="704.3" y="137.0" width="18.3" height="18.3" rx="6.1"/>
    <rect x="747.9" y="137.0" width="18.3" height="18.3" rx="6.1"/>
    <rect x="49.7" y="158.8" width="18.3" height="18.3" rx="6.1"/>
    <rect x="180.7" y="158.8" width="18.3" height="18.3" rx="6.1"/>
    <rect x="246.1" y="158.8" width="18.3" height="18.3" rx="6.1"/>
    <rect x="267.9" y="158.8" width="18.3" height="18.3" rx="6.1"/>
    <rect x="289.7" y="158.8" width="18.3" height="18.3" rx="6.1"/>
    <rect x="311.6" y="158.8" width="18.3" height="18.3" rx="6.1"/>
    <rect x="333.4" y="158.8" width="18.3" height="18.3" rx="6.1"/>
    <rect x="355.2" y="158.8" width="18.3" height="18.3" rx="6.1"/>
    <rect x="377.0" y="158.8" width="18.3" height="18.3" rx="6.1"/>
    <rect x="486.1" y="158.8" width="18.3" height="18.3" rx="6.1"/>
    <rect x="573.4" y="158.8" width="18.3" height="18.3" rx="6.1"/>
    <rect x="617.0" y="158.8" width="18.3" height="18.3" rx="6.1"/>
    <rect x="747.9" y="158.8" width="18.3" height="18.3" rx="6.1"/>
    <rect x="49.7" y="180.7" width="18.3" height="18.3" rx="6.1"/>
    <rect x="71.6" y="180.7" width="18.3" height="18.3" rx="6.1"/>
    <rect x="93.4" y="180.7" width="18.3" height="18.3" rx="6.1"/>
    <rect x="115.2" y="180.7" width="18.3" height="18.3" rx="6.1"/>
    <rect x="137.0" y="180.7" width="18.3" height="18.3" rx="6.1"/>
    <rect x="158.8" y="180.7" width="18.3" height="18.3" rx="6.1"/>
    <rect x="180.7" y="180.7" width="18.3" height="18.3" rx="6.1"/>
    <rect x="224.3" y="180.7" width="18.3" height="18.3" rx="6.1"/>
    <rect x="267.9" y="180.7" width="18.3" height="18.3" rx="6.1"/>
    <rect x="311.6" y="180.7" width="18.3" height="18.3" rx="6.1"/>
    <rect x="355.2" y="180.7" width="18.3" height="18.3" rx="6.1"/>
    <rect x="398.8" y="180.7" width="18.3" height="18.3" rx="6.1"/>
    <rect x="442.5" y="180.7" width="18.3" height="18.3" rx="6.1"/>
    <rect x="486.1" y="180.7" width="18.3" height="18.3" rx="6.1"/>
    <rect x="529.7" y="180.7" width="18.3" height="18.3" rx="6.1"/>
    <rect x="573.4" y="180.7" width="18.3" height="18.3" rx="6.1"/>
    <rect x="617.0" y="180.7" width="18.3" height="18.3" rx="6.1"/>
    <rect x="638.8" y="180.7" width="18.3" height="18.3" rx="6.1"/>
    <rect x="660.7" y="180.7" width="18.3" height="18.3" rx="6.1"/>
    <rect x="682.5" y="180.7" width="18.3" height="18.3" rx="6.1"/>
    <rect x="704.3" y="180.7" width="18.3" height="18.3" rx="6.1"/>
    <rect x="726.1" y="180.7" width="18.3" height="18.3" rx="6.1"/>
    <rect x="747.9" y="180.7" width="18.3" height="18.3" rx="6.1"/>
    <rect x="246.1" y="202.5" width="18.3" height="18.3" rx="6.1"/>
    <rect x="311.6" y="202.5" width="18.3" height="18.3" rx="6.1"/>
    <rect x="333.4" y="202.5" width="18.3" height="18.3" rx="6.1"/>
    <rect x="355.2" y="202.5" width="18.3" height="18.3" rx="6.1"/>
    <rect x="398.8" y="202.5" width="18.3" height="18.3" rx="6.1"/>
    <rect x="486.1" y="202.5" width="18.3" height="18.3" rx="6.1"/>
    <rect x="551.6" y="202.5" width="18.3" height="18.3" rx="6.1"/>
    <rect x="115.2" y="224.3" width="18.3" height="18.3" rx="6.1"/>
    <rect x="137.0" y="224.3" width="18.3" height="18.3" rx="6.1"/>
    <rect x="180.7" y="224.3" width="18.3" height="18.3" rx="6.1"/>
    <rect x="202.5" y="224.3" width="18.3" height="18.3" rx="6.1"/>
    <rect x="246.1" y="224.3" width="18.3" height="18.3" rx="6.1"/>
    <rect x="355.2" y="224.3" width="18.3" height="18.3" rx="6.1"/>
    <rect x="398.8" y="224.3" width="18.3" height="18.3" rx="6.1"/>
    <rect x="420.7" y="224.3" width="18.3" height="18.3" rx="6.1"/>
    <rect x="464.3" y="224.3" width="18.3" height="18.3" rx="6.1"/>
    <rect x="486.1" y="224.3" width="18.3" height="18.3" rx="6.1"/>
    <rect x="529.7" y="224.3" width="18.3" height="18.3" rx="6.1"/>
    <rect x="551.6" y="224.3" width="18.3" height="18.3" rx="6.1"/>
    <rect x="573.4" y="224.3" width="18.3" height="18.3" rx="6.1"/>
    <rect x="682.5" y="224.3" width="18.3" height="18.3" rx="6.1"/>
    <rect x="704.3" y="224.3" width="18.3" height="18.3" rx="6.1"/>
    <rect x="71.6" y="246.1" width="18.3" height="18.3" rx="6.1"/>
    <rect x="137.0" y="246.1" width="18.3" height="18.3" rx="6.1"/>
    <rect x="158.8" y="246.1" width="18.3" height="18.3" rx="6.1"/>
    <rect x="224.3" y="246.1" width="18.3" height="18.3" rx="6.1"/>
    <rect x="246.1" y="246.1" width="18.3" height="18.3" rx="6.1"/>
    <rect x="267.9" y="246.1" width="18.3" height="18.3" rx="6.1"/>
    <rect x="289.7" y="246.1" width="18.3" height="18.3" rx="6.1"/>
    <rect x="333.4" y="246.1" width="18.3" height="18.3" rx="6.1"/>
    <rect x="355.2" y="246.1" width="18.3" height="18.3" rx="6.1"/>
    <rect x="377.0" y="246.1" width="18.3" height="18.3" rx="6.1"/>
    <rect x="398.8" y="246.1" width="18.3" height="18.3" rx="6.1"/>
    <rect x="420.7" y="246.1" width="18.3" height="18.3" rx="6.1"/>
    <rect x="442.5" y="246.1" width="18.3" height="18.3" rx="6.1"/>
    <rect x="486.1" y="246.1" width="18.3" height="18.3" rx="6.1"/>
    <rect x="529.7" y="246.1" width="18.3" height="18.3" rx="6.1"/>
    <rect x="551.6" y="246.1" width="18.3" height="18.3" rx="6.1"/>
    <rect x="595.2" y="246.1" width="18.3" height="18.3" rx="6.1"/>
    <rect x="638.8" y="246.1" width="18.3" height="18.3" rx="6.1"/>
    <rect x="660.7" y="246.1" width="18.3" height="18.3" rx="6.1"/>
    <rect x="682.5" y="246.1" width="18.3" height="18.3" rx="6.1"/>
    <rect x="71.6" y="267.9" width="18.3" height="18.3" rx="6.1"/>
    <rect x="180.7" y="267.9" width="18.3" height="18.3" rx="6.1"/>
    <rect x="267.9" y="267.9" width="18.3" height="18.3" rx="6.1"/>
    <rect x="333.4" y="267.9" width="18.3" height="18.3" rx="6.1"/>
    <rect x="377.0" y="267.9" width="18.3" height="18.3" rx="6.1"/>
    <rect x="398.8" y="267.9" width="18.3" height="18.3" rx="6.1"/>
    <rect x="442.5" y="267.9" width="18.3" height="18.3" rx="6.1"/>
    <rect x="507.9" y="267.9" width="18.3" height="18.3" rx="6.1"/>
    <rect x="551.6" y="267.9" width="18.3" height="18.3" rx="6.1"/>
    <rect x="617.0" y="267.9" width="18.3" height="18.3" rx="6.1"/>
    <rect x="638.8" y="267.9" width="18.3" height="18.3" rx="6.1"/>
    <rect x="682.5" y="267.9" width="18.3" height="18.3" rx="6.1"/>
    <rect x="726.1" y="267.9" width="18.3" height="18.3" rx="6.1"/>
    <rect x="747.9" y="267.9" width="18.3" height="18.3" rx="6.1"/>
    <rect x="71.6" y="289.7" width="18.3" height="18.3" rx="6.1"/>
    <rect x="93.4" y="289.7" width="18.3" height="18.3" rx="6.1"/>
    <rect x="289.7" y="289.7" width="18.3" height="18.3" rx="6.1"/>
    <rect x="398.8" y="289.7" width="18.3" height="18.3" rx="6.1"/>
    <rect x="464.3" y="289.7" width="18.3" height="18.3" rx="6.1"/>
    <rect x="551.6" y="289.7" width="18.3" height="18.3" rx="6.1"/>
    <rect x="595.2" y="289.7" width="18.3" height="18.3" rx="6.1"/>
    <rect x="617.0" y="289.7" width="18.3" height="18.3" rx="6.1"/>
    <rect x="638.8" y="289.7" width="18.3" height="18.3" rx="6.1"/>
    <rect x="660.7" y="289.7" width="18.3" height="18.3" rx="6.1"/>
    <rect x="704.3" y="289.7" width="18.3" height="18.3" rx="6.1"/>
    <rect x="137.0" y="311.6" width="18.3" height="18.3" rx="6.1"/>
    <rect x="180.7" y="311.6" width="18.3" height="18.3" rx="6.1"/>
    <rect x="202.5" y="311.6" width="18.3" height="18.3" rx="6.1"/>
    <rect x="246.1" y="311.6" width="18.3" height="18.3" rx="6.1"/>
    <rect x="267.9" y="311.6" width="18.3" height="18.3" rx="6.1"/>
    <rect x="355.2" y="311.6" width="18.3" height="18.3" rx="6.1"/>
    <rect x="377.0" y="311.6" width="18.3" height="18.3" rx="6.1"/>
    <rect x="398.8" y="311.6" width="18.3" height="18.3" rx="6.1"/>
    <rect x="507.9" y="311.6" width="18.3" height="18.3" rx="6.1"/>
    <rect x="529.7" y="311.6" width="18.3" height="18.3" rx="6.1"/>
    <rect x="551.6" y="311.6" width="18.3" height="18.3" rx="6.1"/>
    <rect x="617.0" y="311.6" width="18.3" height="18.3" rx="6.1"/>
    <rect x="638.8" y="311.6" width="18.3" height="18.3" rx="6.1"/>
    <rect x="660.7" y="311.6" width="18.3" height="18.3" rx="6.1"/>
    <rect x="726.1" y="311.6" width="18.3" height="18.3" rx="6.1"/>
    <rect x="71.6" y="333.4" width="18.3" height="18.3" rx="6.1"/>
    <rect x="115.2" y="333.4" width="18.3" height="18.3" rx="6.1"/>
    <rect x="137.0" y="333.4" width="18.3" height="18.3" rx="6.1"/>
    <rect x="311.6" y="333.4" width="18.3" height="18.3" rx="6.1"/>
    <rect x="398.8" y="333.4" width="18.3" height="18.3" rx="6.1"/>
    <rect x="420.7" y="333.4" width="18.3" height="18.3" rx="6.1"/>
    <rect x="464.3" y="333.4" width="18.3" height="18.3" rx="6.1"/>
    <rect x="486.1" y="333.4" width="18.3" height="18.3" rx="6.1"/>
    <rect x="507.9" y="333.4" width="18.3" height="18.3" rx="6.1"/>
    <rect x="529.7" y="333.4" width="18.3" height="18.3" rx="6.1"/>
    <rect x="551.6" y="333.4" width="18.3" height="18.3" rx="6.1"/>
    <rect x="595.2" y="333.4" width="18.3" height="18.3" rx="6.1"/>
    <rect x="704.3" y="333.4" width="18.3" height="18.3" rx="6.1"/>
    <rect x="726.1" y="333.4" width="18.3" height="18.3" rx="6.1"/>
    <rect x="93.4" y="355.2" width="18.3" height="18.3" rx="6.1"/>
    <rect x="137.0" y="355.2" width="18.3" height="18.3" rx="6.1"/>
    <rect x="180.7" y="355.2" width="18.3" height="18.3" rx="6.1"/>
    <rect x="377.0" y="355.2" width="18.3" height="18.3" rx="6.1"/>
    <rect x="442.5" y="355.2" width="18.3" height="18.3" rx="6.1"/>
    <rect x="573.4" y="355.2" width="18.3" height="18.3" rx="6.1"/>
    <rect x="595.2" y="355.2" width="18.3" height="18.3" rx="6.1"/>
    <rect x="704.3" y="355.2" width="18.3" height="18.3" rx="6.1"/>
    <rect x="115.2" y="377.0" width="18.3" height="18.3" rx="6.1"/>
    <rect x="333.4" y="377.0" width="18.3" height="18.3" rx="6.1"/>
    <rect x="355.2" y="377.0" width="18.3" height="18.3" rx="6.1"/>
    <rect x="420.7" y="377.0" width="18.3" height="18.3" rx="6.1"/>
    <rect x="551.6" y="377.0" width="18.3" height="18.3" rx="6.1"/>
    <rect x="638.8" y="377.0" width="18.3" height="18.3" rx="6.1"/>
    <rect x="682.5" y="377.0" width="18.3" height="18.3" rx="6.1"/>
    <rect x="704.3" y="377.0" width="18.3" height="18.3" rx="6.1"/>
    <rect x="726.1" y="377.0" width="18.3" height="18.3" rx="6.1"/>
    <rect x="747.9" y="377.0" width="18.3" height="18.3" rx="6.1"/>
    <rect x="49.7" y="398.8" width="18.3" height="18.3" rx="6.1"/>
    <rect x="71.6" y="398.8" width="18.3" height="18.3" rx="6.1"/>
    <rect x="93.4" y="398.8" width="18.3" height="18.3" rx="6.1"/>
    <rect x="115.2" y="398.8" width="18.3" height="18.3" rx="6.1"/>
    <rect x="158.8" y="398.8" width="18.3" height="18.3" rx="6.1"/>
    <rect x="180.7" y="398.8" width="18.3" height="18.3" rx="6.1"/>
    <rect x="246.1" y="398.8" width="18.3" height="18.3" rx="6.1"/>
    <rect x="267.9" y="398.8" width="18.3" height="18.3" rx="6.1"/>
    <rect x="333.4" y="398.8" width="18.3" height="18.3" rx="6.1"/>
    <rect x="377.0" y="398.8" width="18.3" height="18.3" rx="6.1"/>
    <rect x="398.8" y="398.8" width="18.3" height="18.3" rx="6.1"/>
    <rect x="442.5" y="398.8" width="18.3" height="18.3" rx="6.1"/>
    <rect x="595.2" y="398.8" width="18.3" height="18.3" rx="6.1"/>
    <rect x="617.0" y="398.8" width="18.3" height="18.3" rx="6.1"/>
    <rect x="660.7" y="398.8" width="18.3" height="18.3" rx="6.1"/>
    <rect x="726.1" y="398.8" width="18.3" height="18.3" rx="6.1"/>
    <rect x="49.7" y="420.7" width="18.3" height="18.3" rx="6.1"/>
    <rect x="93.4" y="420.7" width="18.3" height="18.3" rx="6.1"/>
    <rect x="115.2" y="420.7" width="18.3" height="18.3" rx="6.1"/>
    <rect x="158.8" y="420.7" width="18.3" height="18.3" rx="6.1"/>
    <rect x="224.3" y="420.7" width="18.3" height="18.3" rx="6.1"/>
    <rect x="246.1" y="420.7" width="18.3" height="18.3" rx="6.1"/>
    <rect x="289.7" y="420.7" width="18.3" height="18.3" rx="6.1"/>
    <rect x="311.6" y="420.7" width="18.3" height="18.3" rx="6.1"/>
    <rect x="355.2" y="420.7" width="18.3" height="18.3" rx="6.1"/>
    <rect x="420.7" y="420.7" width="18.3" height="18.3" rx="6.1"/>
    <rect x="442.5" y="420.7" width="18.3" height="18.3" rx="6.1"/>
    <rect x="486.1" y="420.7" width="18.3" height="18.3" rx="6.1"/>
    <rect x="507.9" y="420.7" width="18.3" height="18.3" rx="6.1"/>
    <rect x="529.7" y="420.7" width="18.3" height="18.3" rx="6.1"/>
    <rect x="573.4" y="420.7" width="18.3" height="18.3" rx="6.1"/>
    <rect x="617.0" y="420.7" width="18.3" height="18.3" rx="6.1"/>
    <rect x="638.8" y="420.7" width="18.3" height="18.3" rx="6.1"/>
    <rect x="660.7" y="420.7" width="18.3" height="18.3" rx="6.1"/>
    <rect x="682.5" y="420.7" width="18.3" height="18.3" rx="6.1"/>
    <rect x="726.1" y="420.7" width="18.3" height="18.3" rx="6.1"/>
    <rect x="747.9" y="420.7" width="18.3" height="18.3" rx="6.1"/>
    <rect x="49.7" y="442.5" width="18.3" height="18.3" rx="6.1"/>
    <rect x="137.0" y="442.5" width="18.3" height="18.3" rx="6.1"/>
    <rect x="158.8" y="442.5" width="18.3" height="18.3" rx="6.1"/>
    <rect x="180.7" y="442.5" width="18.3" height="18.3" rx="6.1"/>
    <rect x="224.3" y="442.5" width="18.3" height="18.3" rx="6.1"/>
    <rect x="246.1" y="442.5" width="18.3" height="18.3" rx="6.1"/>
    <rect x="289.7" y="442.5" width="18.3" height="18.3" rx="6.1"/>
    <rect x="333.4" y="442.5" width="18.3" height="18.3" rx="6.1"/>
    <rect x="355.2" y="442.5" width="18.3" height="18.3" rx="6.1"/>
    <rect x="377.0" y="442.5" width="18.3" height="18.3" rx="6.1"/>
    <rect x="420.7" y="442.5" width="18.3" height="18.3" rx="6.1"/>
    <rect x="486.1" y="442.5" width="18.3" height="18.3" rx="6.1"/>
    <rect x="507.9" y="442.5" width="18.3" height="18.3" rx="6.1"/>
    <rect x="529.7" y="442.5" width="18.3" height="18.3" rx="6.1"/>
    <rect x="551.6" y="442.5" width="18.3" height="18.3" rx="6.1"/>
    <rect x="660.7" y="442.5" width="18.3" height="18.3" rx="6.1"/>
    <rect x="682.5" y="442.5" width="18.3" height="18.3" rx="6.1"/>
    <rect x="704.3" y="442.5" width="18.3" height="18.3" rx="6.1"/>
    <rect x="747.9" y="442.5" width="18.3" height="18.3" rx="6.1"/>
    <rect x="49.7" y="464.3" width="18.3" height="18.3" rx="6.1"/>
    <rect x="71.6" y="464.3" width="18.3" height="18.3" rx="6.1"/>
    <rect x="158.8" y="464.3" width="18.3" height="18.3" rx="6.1"/>
    <rect x="202.5" y="464.3" width="18.3" height="18.3" rx="6.1"/>
    <rect x="224.3" y="464.3" width="18.3" height="18.3" rx="6.1"/>
    <rect x="246.1" y="464.3" width="18.3" height="18.3" rx="6.1"/>
    <rect x="289.7" y="464.3" width="18.3" height="18.3" rx="6.1"/>
    <rect x="311.6" y="464.3" width="18.3" height="18.3" rx="6.1"/>
    <rect x="377.0" y="464.3" width="18.3" height="18.3" rx="6.1"/>
    <rect x="442.5" y="464.3" width="18.3" height="18.3" rx="6.1"/>
    <rect x="464.3" y="464.3" width="18.3" height="18.3" rx="6.1"/>
    <rect x="529.7" y="464.3" width="18.3" height="18.3" rx="6.1"/>
    <rect x="551.6" y="464.3" width="18.3" height="18.3" rx="6.1"/>
    <rect x="573.4" y="464.3" width="18.3" height="18.3" rx="6.1"/>
    <rect x="595.2" y="464.3" width="18.3" height="18.3" rx="6.1"/>
    <rect x="638.8" y="464.3" width="18.3" height="18.3" rx="6.1"/>
    <rect x="682.5" y="464.3" width="18.3" height="18.3" rx="6.1"/>
    <rect x="704.3" y="464.3" width="18.3" height="18.3" rx="6.1"/>
    <rect x="747.9" y="464.3" width="18.3" height="18.3" rx="6.1"/>
    <rect x="49.7" y="486.1" width="18.3" height="18.3" rx="6.1"/>
    <rect x="71.6" y="486.1" width="18.3" height="18.3" rx="6.1"/>
    <rect x="93.4" y="486.1" width="18.3" height="18.3" rx="6.1"/>
    <rect x="115.2" y="486.1" width="18.3" height="18.3" rx="6.1"/>
    <rect x="137.0" y="486.1" width="18.3" height="18.3" rx="6.1"/>
    <rect x="158.8" y="486.1" width="18.3" height="18.3" rx="6.1"/>
    <rect x="180.7" y="486.1" width="18.3" height="18.3" rx="6.1"/>
    <rect x="202.5" y="486.1" width="18.3" height="18.3" rx="6.1"/>
    <rect x="224.3" y="486.1" width="18.3" height="18.3" rx="6.1"/>
    <rect x="333.4" y="486.1" width="18.3" height="18.3" rx="6.1"/>
    <rect x="355.2" y="486.1" width="18.3" height="18.3" rx="6.1"/>
    <rect x="377.0" y="486.1" width="18.3" height="18.3" rx="6.1"/>
    <rect x="398.8" y="486.1" width="18.3" height="18.3" rx="6.1"/>
    <rect x="442.5" y="486.1" width="18.3" height="18.3" rx="6.1"/>
    <rect x="464.3" y="486.1" width="18.3" height="18.3" rx="6.1"/>
    <rect x="617.0" y="486.1" width="18.3" height="18.3" rx="6.1"/>
    <rect x="638.8" y="486.1" width="18.3" height="18.3" rx="6.1"/>
    <rect x="682.5" y="486.1" width="18.3" height="18.3" rx="6.1"/>
    <rect x="726.1" y="486.1" width="18.3" height="18.3" rx="6.1"/>
    <rect x="49.7" y="507.9" width="18.3" height="18.3" rx="6.1"/>
    <rect x="71.6" y="507.9" width="18.3" height="18.3" rx="6.1"/>
    <rect x="115.2" y="507.9" width="18.3" height="18.3" rx="6.1"/>
    <rect x="137.0" y="507.9" width="18.3" height="18.3" rx="6.1"/>
    <rect x="158.8" y="507.9" width="18.3" height="18.3" rx="6.1"/>
    <rect x="202.5" y="507.9" width="18.3" height="18.3" rx="6.1"/>
    <rect x="224.3" y="507.9" width="18.3" height="18.3" rx="6.1"/>
    <rect x="267.9" y="507.9" width="18.3" height="18.3" rx="6.1"/>
    <rect x="289.7" y="507.9" width="18.3" height="18.3" rx="6.1"/>
    <rect x="333.4" y="507.9" width="18.3" height="18.3" rx="6.1"/>
    <rect x="355.2" y="507.9" width="18.3" height="18.3" rx="6.1"/>
    <rect x="398.8" y="507.9" width="18.3" height="18.3" rx="6.1"/>
    <rect x="420.7" y="507.9" width="18.3" height="18.3" rx="6.1"/>
    <rect x="464.3" y="507.9" width="18.3" height="18.3" rx="6.1"/>
    <rect x="507.9" y="507.9" width="18.3" height="18.3" rx="6.1"/>
    <rect x="529.7" y="507.9" width="18.3" height="18.3" rx="6.1"/>
    <rect x="573.4" y="507.9" width="18.3" height="18.3" rx="6.1"/>
    <rect x="617.0" y="507.9" width="18.3" height="18.3" rx="6.1"/>
    <rect x="638.8" y="507.9" width="18.3" height="18.3" rx="6.1"/>
    <rect x="660.7" y="507.9" width="18.3" height="18.3" rx="6.1"/>
    <rect x="49.7" y="529.7" width="18.3" height="18.3" rx="6.1"/>
    <rect x="93.4" y="529.7" width="18.3" height="18.3" rx="6.1"/>
    <rect x="115.2" y="529.7" width="18.3" height="18.3" rx="6.1"/>
    <rect x="137.0" y="529.7" width="18.3" height="18.3" rx="6.1"/>
    <rect x="158.8" y="529.7" width="18.3" height="18.3" rx="6.1"/>
    <rect x="180.7" y="529.7" width="18.3" height="18.3" rx="6.1"/>
    <rect x="202.5" y="529.7" width="18.3" height="18.3" rx="6.1"/>
    <rect x="333.4" y="529.7" width="18.3" height="18.3" rx="6.1"/>
    <rect x="398.8" y="529.7" width="18.3" height="18.3" rx="6.1"/>
    <rect x="420.7" y="529.7" width="18.3" height="18.3" rx="6.1"/>
    <rect x="442.5" y="529.7" width="18.3" height="18.3" rx="6.1"/>
    <rect x="464.3" y="529.7" width="18.3" height="18.3" rx="6.1"/>
    <rect x="529.7" y="529.7" width="18.3" height="18.3" rx="6.1"/>
    <rect x="551.6" y="529.7" width="18.3" height="18.3" rx="6.1"/>
    <rect x="617.0" y="529.7" width="18.3" height="18.3" rx="6.1"/>
    <rect x="704.3" y="529.7" width="18.3" height="18.3" rx="6.1"/>
    <rect x="747.9" y="529.7" width="18.3" height="18.3" rx="6.1"/>
    <rect x="49.7" y="551.6" width="18.3" height="18.3" rx="6.1"/>
    <rect x="202.5" y="551.6" width="18.3" height="18.3" rx="6.1"/>
    <rect x="246.1" y="551.6" width="18.3" height="18.3" rx="6.1"/>
    <rect x="267.9" y="551.6" width="18.3" height="18.3" rx="6.1"/>
    <rect x="398.8" y="551.6" width="18.3" height="18.3" rx="6.1"/>
    <rect x="442.5" y="551.6" width="18.3" height="18.3" rx="6.1"/>
    <rect x="464.3" y="551.6" width="18.3" height="18.3" rx="6.1"/>
    <rect x="529.7" y="551.6" width="18.3" height="18.3" rx="6.1"/>
    <rect x="551.6" y="551.6" width="18.3" height="18.3" rx="6.1"/>
    <rect x="573.4" y="551.6" width="18.3" height="18.3" rx="6.1"/>
    <rect x="638.8" y="551.6" width="18.3" height="18.3" rx="6.1"/>
    <rect x="682.5" y="551.6" width="18.3" height="18.3" rx="6.1"/>
    <rect x="704.3" y="551.6" width="18.3" height="18.3" rx="6.1"/>
    <rect x="726.1" y="551.6" width="18.3" height="18.3" rx="6.1"/>
    <rect x="747.9" y="551.6" width="18.3" height="18.3" rx="6.1"/>
    <rect x="49.7" y="573.4" width="18.3" height="18.3" rx="6.1"/>
    <rect x="71.6" y="573.4" width="18.3" height="18.3" rx="6.1"/>
    <rect x="115.2" y="573.4" width="18.3" height="18.3" rx="6.1"/>
    <rect x="137.0" y="573.4" width="18.3" height="18.3" rx="6.1"/>
    <rect x="180.7" y="573.4" width="18.3" height="18.3" rx="6.1"/>
    <rect x="246.1" y="573.4" width="18.3" height="18.3" rx="6.1"/>
    <rect x="267.9" y="573.4" width="18.3" height="18.3" rx="6.1"/>
    <rect x="289.7" y="573.4" width="18.3" height="18.3" rx="6.1"/>
    <rect x="311.6" y="573.4" width="18.3" height="18.3" rx="6.1"/>
    <rect x="355.2" y="573.4" width="18.3" height="18.3" rx="6.1"/>
    <rect x="398.8" y="573.4" width="18.3" height="18.3" rx="6.1"/>
    <rect x="442.5" y="573.4" width="18.3" height="18.3" rx="6.1"/>
    <rect x="486.1" y="573.4" width="18.3" height="18.3" rx="6.1"/>
    <rect x="551.6" y="573.4" width="18.3" height="18.3" rx="6.1"/>
    <rect x="573.4" y="573.4" width="18.3" height="18.3" rx="6.1"/>
    <rect x="595.2" y="573.4" width="18.3" height="18.3" rx="6.1"/>
    <rect x="617.0" y="573.4" width="18.3" height="18.3" rx="6.1"/>
    <rect x="638.8" y="573.4" width="18.3" height="18.3" rx="6.1"/>
    <rect x="660.7" y="573.4" width="18.3" height="18.3" rx="6.1"/>
    <rect x="682.5" y="573.4" width="18.3" height="18.3" rx="6.1"/>
    <rect x="726.1" y="573.4" width="18.3" height="18.3" rx="6.1"/>
    <rect x="224.3" y="595.2" width="18.3" height="18.3" rx="6.1"/>
    <rect x="246.1" y="595.2" width="18.3" height="18.3" rx="6.1"/>
    <rect x="267.9" y="595.2" width="18.3" height="18.3" rx="6.1"/>
    <rect x="289.7" y="595.2" width="18.3" height="18.3" rx="6.1"/>
    <rect x="311.6" y="595.2" width="18.3" height="18.3" rx="6.1"/>
    <rect x="333.4" y="595.2" width="18.3" height="18.3" rx="6.1"/>
    <rect x="377.0" y="595.2" width="18.3" height="18.3" rx="6.1"/>
    <rect x="398.8" y="595.2" width="18.3" height="18.3" rx="6.1"/>
    <rect x="464.3" y="595.2" width="18.3" height="18.3" rx="6.1"/>
    <rect x="507.9" y="595.2" width="18.3" height="18.3" rx="6.1"/>
    <rect x="573.4" y="595.2" width="18.3" height="18.3" rx="6.1"/>
    <rect x="660.7" y="595.2" width="18.3" height="18.3" rx="6.1"/>
    <rect x="682.5" y="595.2" width="18.3" height="18.3" rx="6.1"/>
    <rect x="704.3" y="595.2" width="18.3" height="18.3" rx="6.1"/>
    <rect x="726.1" y="595.2" width="18.3" height="18.3" rx="6.1"/>
    <rect x="49.7" y="617.0" width="18.3" height="18.3" rx="6.1"/>
    <rect x="71.6" y="617.0" width="18.3" height="18.3" rx="6.1"/>
    <rect x="93.4" y="617.0" width="18.3" height="18.3" rx="6.1"/>
    <rect x="115.2" y="617.0" width="18.3" height="18.3" rx="6.1"/>
    <rect x="137.0" y="617.0" width="18.3" height="18.3" rx="6.1"/>
    <rect x="158.8" y="617.0" width="18.3" height="18.3" rx="6.1"/>
    <rect x="180.7" y="617.0" width="18.3" height="18.3" rx="6.1"/>
    <rect x="224.3" y="617.0" width="18.3" height="18.3" rx="6.1"/>
    <rect x="246.1" y="617.0" width="18.3" height="18.3" rx="6.1"/>
    <rect x="267.9" y="617.0" width="18.3" height="18.3" rx="6.1"/>
    <rect x="355.2" y="617.0" width="18.3" height="18.3" rx="6.1"/>
    <rect x="398.8" y="617.0" width="18.3" height="18.3" rx="6.1"/>
    <rect x="442.5" y="617.0" width="18.3" height="18.3" rx="6.1"/>
    <rect x="551.6" y="617.0" width="18.3" height="18.3" rx="6.1"/>
    <rect x="573.4" y="617.0" width="18.3" height="18.3" rx="6.1"/>
    <rect x="617.0" y="617.0" width="18.3" height="18.3" rx="6.1"/>
    <rect x="660.7" y="617.0" width="18.3" height="18.3" rx="6.1"/>
    <rect x="49.7" y="638.8" width="18.3" height="18.3" rx="6.1"/>
    <rect x="180.7" y="638.8" width="18.3" height="18.3" rx="6.1"/>
    <rect x="289.7" y="638.8" width="18.3" height="18.3" rx="6.1"/>
    <rect x="398.8" y="638.8" width="18.3" height="18.3" rx="6.1"/>
    <rect x="464.3" y="638.8" width="18.3" height="18.3" rx="6.1"/>
    <rect x="486.1" y="638.8" width="18.3" height="18.3" rx="6.1"/>
    <rect x="507.9" y="638.8" width="18.3" height="18.3" rx="6.1"/>
    <rect x="529.7" y="638.8" width="18.3" height="18.3" rx="6.1"/>
    <rect x="551.6" y="638.8" width="18.3" height="18.3" rx="6.1"/>
    <rect x="573.4" y="638.8" width="18.3" height="18.3" rx="6.1"/>
    <rect x="660.7" y="638.8" width="18.3" height="18.3" rx="6.1"/>
    <rect x="682.5" y="638.8" width="18.3" height="18.3" rx="6.1"/>
    <rect x="704.3" y="638.8" width="18.3" height="18.3" rx="6.1"/>
    <rect x="726.1" y="638.8" width="18.3" height="18.3" rx="6.1"/>
    <rect x="49.7" y="660.7" width="18.3" height="18.3" rx="6.1"/>
    <rect x="93.4" y="660.7" width="18.3" height="18.3" rx="6.1"/>
    <rect x="115.2" y="660.7" width="18.3" height="18.3" rx="6.1"/>
    <rect x="137.0" y="660.7" width="18.3" height="18.3" rx="6.1"/>
    <rect x="180.7" y="660.7" width="18.3" height="18.3" rx="6.1"/>
    <rect x="224.3" y="660.7" width="18.3" height="18.3" rx="6.1"/>
    <rect x="267.9" y="660.7" width="18.3" height="18.3" rx="6.1"/>
    <rect x="311.6" y="660.7" width="18.3" height="18.3" rx="6.1"/>
    <rect x="333.4" y="660.7" width="18.3" height="18.3" rx="6.1"/>
    <rect x="377.0" y="660.7" width="18.3" height="18.3" rx="6.1"/>
    <rect x="464.3" y="660.7" width="18.3" height="18.3" rx="6.1"/>
    <rect x="486.1" y="660.7" width="18.3" height="18.3" rx="6.1"/>
    <rect x="507.9" y="660.7" width="18.3" height="18.3" rx="6.1"/>
    <rect x="529.7" y="660.7" width="18.3" height="18.3" rx="6.1"/>
    <rect x="551.6" y="660.7" width="18.3" height="18.3" rx="6.1"/>
    <rect x="573.4" y="660.7" width="18.3" height="18.3" rx="6.1"/>
    <rect x="595.2" y="660.7" width="18.3" height="18.3" rx="6.1"/>
    <rect x="617.0" y="660.7" width="18.3" height="18.3" rx="6.1"/>
    <rect x="638.8" y="660.7" width="18.3" height="18.3" rx="6.1"/>
    <rect x="660.7" y="660.7" width="18.3" height="18.3" rx="6.1"/>
    <rect x="682.5" y="660.7" width="18.3" height="18.3" rx="6.1"/>
    <rect x="726.1" y="660.7" width="18.3" height="18.3" rx="6.1"/>
    <rect x="49.7" y="682.5" width="18.3" height="18.3" rx="6.1"/>
    <rect x="93.4" y="682.5" width="18.3" height="18.3" rx="6.1"/>
    <rect x="115.2" y="682.5" width="18.3" height="18.3" rx="6.1"/>
    <rect x="137.0" y="682.5" width="18.3" height="18.3" rx="6.1"/>
    <rect x="180.7" y="682.5" width="18.3" height="18.3" rx="6.1"/>
    <rect x="224.3" y="682.5" width="18.3" height="18.3" rx="6.1"/>
    <rect x="246.1" y="682.5" width="18.3" height="18.3" rx="6.1"/>
    <rect x="311.6" y="682.5" width="18.3" height="18.3" rx="6.1"/>
    <rect x="333.4" y="682.5" width="18.3" height="18.3" rx="6.1"/>
    <rect x="377.0" y="682.5" width="18.3" height="18.3" rx="6.1"/>
    <rect x="442.5" y="682.5" width="18.3" height="18.3" rx="6.1"/>
    <rect x="507.9" y="682.5" width="18.3" height="18.3" rx="6.1"/>
    <rect x="529.7" y="682.5" width="18.3" height="18.3" rx="6.1"/>
    <rect x="595.2" y="682.5" width="18.3" height="18.3" rx="6.1"/>
    <rect x="638.8" y="682.5" width="18.3" height="18.3" rx="6.1"/>
    <rect x="682.5" y="682.5" width="18.3" height="18.3" rx="6.1"/>
    <rect x="704.3" y="682.5" width="18.3" height="18.3" rx="6.1"/>
    <rect x="726.1" y="682.5" width="18.3" height="18.3" rx="6.1"/>
    <rect x="49.7" y="704.3" width="18.3" height="18.3" rx="6.1"/>
    <rect x="93.4" y="704.3" width="18.3" height="18.3" rx="6.1"/>
    <rect x="115.2" y="704.3" width="18.3" height="18.3" rx="6.1"/>
    <rect x="137.0" y="704.3" width="18.3" height="18.3" rx="6.1"/>
    <rect x="180.7" y="704.3" width="18.3" height="18.3" rx="6.1"/>
    <rect x="246.1" y="704.3" width="18.3" height="18.3" rx="6.1"/>
    <rect x="289.7" y="704.3" width="18.3" height="18.3" rx="6.1"/>
    <rect x="311.6" y="704.3" width="18.3" height="18.3" rx="6.1"/>
    <rect x="355.2" y="704.3" width="18.3" height="18.3" rx="6.1"/>
    <rect x="398.8" y="704.3" width="18.3" height="18.3" rx="6.1"/>
    <rect x="420.7" y="704.3" width="18.3" height="18.3" rx="6.1"/>
    <rect x="442.5" y="704.3" width="18.3" height="18.3" rx="6.1"/>
    <rect x="464.3" y="704.3" width="18.3" height="18.3" rx="6.1"/>
    <rect x="529.7" y="704.3" width="18.3" height="18.3" rx="6.1"/>
    <rect x="551.6" y="704.3" width="18.3" height="18.3" rx="6.1"/>
    <rect x="573.4" y="704.3" width="18.3" height="18.3" rx="6.1"/>
    <rect x="660.7" y="704.3" width="18.3" height="18.3" rx="6.1"/>
    <rect x="682.5" y="704.3" width="18.3" height="18.3" rx="6.1"/>
    <rect x="704.3" y="704.3" width="18.3" height="18.3" rx="6.1"/>
    <rect x="726.1" y="704.3" width="18.3" height="18.3" rx="6.1"/>
    <rect x="747.9" y="704.3" width="18.3" height="18.3" rx="6.1"/>
    <rect x="49.7" y="726.1" width="18.3" height="18.3" rx="6.1"/>
    <rect x="180.7" y="726.1" width="18.3" height="18.3" rx="6.1"/>
    <rect x="333.4" y="726.1" width="18.3" height="18.3" rx="6.1"/>
    <rect x="355.2" y="726.1" width="18.3" height="18.3" rx="6.1"/>
    <rect x="377.0" y="726.1" width="18.3" height="18.3" rx="6.1"/>
    <rect x="464.3" y="726.1" width="18.3" height="18.3" rx="6.1"/>
    <rect x="486.1" y="726.1" width="18.3" height="18.3" rx="6.1"/>
    <rect x="507.9" y="726.1" width="18.3" height="18.3" rx="6.1"/>
    <rect x="595.2" y="726.1" width="18.3" height="18.3" rx="6.1"/>
    <rect x="617.0" y="726.1" width="18.3" height="18.3" rx="6.1"/>
    <rect x="704.3" y="726.1" width="18.3" height="18.3" rx="6.1"/>
    <rect x="726.1" y="726.1" width="18.3" height="18.3" rx="6.1"/>
    <rect x="747.9" y="726.1" width="18.3" height="18.3" rx="6.1"/>
    <rect x="49.7" y="747.9" width="18.3" height="18.3" rx="6.1"/>
    <rect x="71.6" y="747.9" width="18.3" height="18.3" rx="6.1"/>
    <rect x="93.4" y="747.9" width="18.3" height="18.3" rx="6.1"/>
    <rect x="115.2" y="747.9" width="18.3" height="18.3" rx="6.1"/>
    <rect x="137.0" y="747.9" width="18.3" height="18.3" rx="6.1"/>
    <rect x="158.8" y="747.9" width="18.3" height="18.3" rx="6.1"/>
    <rect x="180.7" y="747.9" width="18.3" height="18.3" rx="6.1"/>
    <rect x="246.1" y="747.9" width="18.3" height="18.3" rx="6.1"/>
    <rect x="267.9" y="747.9" width="18.3" height="18.3" rx="6.1"/>
    <rect x="311.6" y="747.9" width="18.3" height="18.3" rx="6.1"/>
    <rect x="333.4" y="747.9" width="18.3" height="18.3" rx="6.1"/>
    <rect x="377.0" y="747.9" width="18.3" height="18.3" rx="6.1"/>
    <rect x="442.5" y="747.9" width="18.3" height="18.3" rx="6.1"/>
    <rect x="464.3" y="747.9" width="18.3" height="18.3" rx="6.1"/>
    <rect x="486.1" y="747.9" width="18.3" height="18.3" rx="6.1"/>
    <rect x="507.9" y="747.9" width="18.3" height="18.3" rx="6.1"/>
    <rect x="551.6" y="747.9" width="18.3" height="18.3" rx="6.1"/>
    <rect x="573.4" y="747.9" width="18.3" height="18.3" rx="6.1"/>
    <rect x="660.7" y="747.9" width="18.3" height="18.3" rx="6.1"/>
  </g>

  <!-- 3. Clear zone behind the hand icon so QR modules don't clash -->
  <rect x="295.2" y="280.8"
        width="225.60000000000002" height="254.4"
        rx="16" fill="#060606"/>

  <!-- 4. Middle finger icon (centered, red, matching QR style) -->
  <path d="M232 0c-22.1 0-40 17.9-40 40v164.2c-8.5-7.6-19.7-12.2-32-12.2c-26.5 0-48 21.5-48 48v80c0 8.8-7.2 16-16 16s-16-7.2-16-16v-55.7c-2 1.4-3.9 3-5.8 4.5l-19.2 16C40.4 297 32 315 32 334v38c0 38 16.9 74 46.1 98.3l5.4 4.5c28.8 24 65 37.1 102.4 37.1l118.1.1c70.7 0 128-57.3 128-128v-96c0-26.5-21.5-48-48-48c-12.4 0-23.6 4.7-32.1 12.3C350 227.5 329.3 208 304 208c-12.3 0-23.5 4.6-32 12.2V40c0-22.1-17.9-40-40-40" fill="#e01818"
        transform="translate(307.2,292.8) scale(0.4500,0.4500)"/>

  <!-- 5. Subtle outline around the icon -->
  <path d="M232 0c-22.1 0-40 17.9-40 40v164.2c-8.5-7.6-19.7-12.2-32-12.2c-26.5 0-48 21.5-48 48v80c0 8.8-7.2 16-16 16s-16-7.2-16-16v-55.7c-2 1.4-3.9 3-5.8 4.5l-19.2 16C40.4 297 32 315 32 334v38c0 38 16.9 74 46.1 98.3l5.4 4.5c28.8 24 65 37.1 102.4 37.1l118.1.1c70.7 0 128-57.3 128-128v-96c0-26.5-21.5-48-48-48c-12.4 0-23.6 4.7-32.1 12.3C350 227.5 329.3 208 304 208c-12.3 0-23.5 4.6-32 12.2V40c0-22.1-17.9-40-40-40" fill="none" stroke="#6e1515" stroke-width="4.4"
        transform="translate(307.2,292.8) scale(0.4500,0.4500)"/>
</svg>